<mxfile host="app.diagrams.net" agent="Mozilla/5.0 (Macintosh; Intel Mac OS X 10_15_7) AppleWebKit/537.36 (KHTML, like Gecko) Chrome/139.0.0.0 Safari/537.36 Edg/139.0.0.0" version="28.1.1">
  <diagram name="第 1 页" id="pve0NRQpCfyvnFZcZqz9">
    <mxGraphModel dx="1657" dy="769" grid="1" gridSize="10" guides="1" tooltips="1" connect="1" arrows="1" fold="1" page="1" pageScale="1" pageWidth="827" pageHeight="1169" background="none" math="0" shadow="0">
      <root>
        <mxCell id="0" />
        <mxCell id="1" parent="0" />
        <mxCell id="o8nqJPVt-zvEMNnkmq4Q-1" value="服务商" style="rounded=1;whiteSpace=wrap;html=1;fillColor=#d5e8d4;strokeColor=#82b366;" parent="1" vertex="1">
          <mxGeometry x="310" width="120" height="60" as="geometry" />
        </mxCell>
        <mxCell id="o8nqJPVt-zvEMNnkmq4Q-2" value="User&lt;div&gt;&lt;br&gt;&lt;/div&gt;" style="shape=umlActor;verticalLabelPosition=bottom;verticalAlign=top;html=1;outlineConnect=0;" parent="1" vertex="1">
          <mxGeometry x="150" y="100" width="30" height="60" as="geometry" />
        </mxCell>
        <mxCell id="o8nqJPVt-zvEMNnkmq4Q-5" value="抖音" style="rounded=1;whiteSpace=wrap;html=1;fillColor=#ffe6cc;strokeColor=#d79b00;" parent="1" vertex="1">
          <mxGeometry x="620" width="120" height="60" as="geometry" />
        </mxCell>
        <mxCell id="o8nqJPVt-zvEMNnkmq4Q-9" value="" style="rounded=0;whiteSpace=wrap;html=1;direction=south;" parent="1" vertex="1">
          <mxGeometry x="365" y="100" width="10" height="110" as="geometry" />
        </mxCell>
        <mxCell id="o8nqJPVt-zvEMNnkmq4Q-11" value="" style="endArrow=none;html=1;rounded=0;entryX=0.5;entryY=1;entryDx=0;entryDy=0;exitX=0;exitY=0.5;exitDx=0;exitDy=0;" parent="1" source="o8nqJPVt-zvEMNnkmq4Q-9" target="o8nqJPVt-zvEMNnkmq4Q-1" edge="1">
          <mxGeometry width="50" height="50" relative="1" as="geometry">
            <mxPoint x="450" y="140" as="sourcePoint" />
            <mxPoint x="500" y="90" as="targetPoint" />
          </mxGeometry>
        </mxCell>
        <mxCell id="o8nqJPVt-zvEMNnkmq4Q-12" value="" style="endArrow=classic;html=1;rounded=0;entryX=0.182;entryY=0.8;entryDx=0;entryDy=0;entryPerimeter=0;" parent="1" target="o8nqJPVt-zvEMNnkmq4Q-9" edge="1">
          <mxGeometry width="50" height="50" relative="1" as="geometry">
            <mxPoint x="200" y="120" as="sourcePoint" />
            <mxPoint x="360" y="120" as="targetPoint" />
          </mxGeometry>
        </mxCell>
        <mxCell id="o8nqJPVt-zvEMNnkmq4Q-14" value="核销" style="edgeLabel;html=1;align=center;verticalAlign=middle;resizable=0;points=[];" parent="o8nqJPVt-zvEMNnkmq4Q-12" vertex="1" connectable="0">
          <mxGeometry x="-0.4375" y="2" relative="1" as="geometry">
            <mxPoint as="offset" />
          </mxGeometry>
        </mxCell>
        <mxCell id="o8nqJPVt-zvEMNnkmq4Q-19" value="" style="endArrow=classic;html=1;rounded=0;exitX=0.182;exitY=-0.5;exitDx=0;exitDy=0;exitPerimeter=0;entryX=0.164;entryY=1;entryDx=0;entryDy=0;entryPerimeter=0;" parent="1" source="o8nqJPVt-zvEMNnkmq4Q-9" target="o8nqJPVt-zvEMNnkmq4Q-22" edge="1">
          <mxGeometry width="50" height="50" relative="1" as="geometry">
            <mxPoint x="450" y="140" as="sourcePoint" />
            <mxPoint x="654" y="118.36999999999989" as="targetPoint" />
          </mxGeometry>
        </mxCell>
        <mxCell id="o8nqJPVt-zvEMNnkmq4Q-20" value="验券准备接口，查询券列表" style="edgeLabel;html=1;align=center;verticalAlign=middle;resizable=0;points=[];" parent="o8nqJPVt-zvEMNnkmq4Q-19" vertex="1" connectable="0">
          <mxGeometry x="-0.6333" relative="1" as="geometry">
            <mxPoint x="95" as="offset" />
          </mxGeometry>
        </mxCell>
        <mxCell id="nJhTN-xELW21ojM_PChQ-7" value="" style="edgeStyle=orthogonalEdgeStyle;rounded=0;orthogonalLoop=1;jettySize=auto;html=1;strokeColor=default;strokeWidth=1;endArrow=none;endFill=0;" parent="1" source="o8nqJPVt-zvEMNnkmq4Q-22" target="nJhTN-xELW21ojM_PChQ-2" edge="1">
          <mxGeometry relative="1" as="geometry" />
        </mxCell>
        <mxCell id="nJhTN-xELW21ojM_PChQ-9" style="edgeStyle=orthogonalEdgeStyle;rounded=0;orthogonalLoop=1;jettySize=auto;html=1;entryX=0.5;entryY=0;entryDx=0;entryDy=0;dashed=1;" parent="1" edge="1">
          <mxGeometry relative="1" as="geometry">
            <mxPoint x="675" y="190" as="sourcePoint" />
            <mxPoint x="375" y="190" as="targetPoint" />
          </mxGeometry>
        </mxCell>
        <mxCell id="nJhTN-xELW21ojM_PChQ-10" value="返回verifytoken等参数" style="edgeLabel;html=1;align=center;verticalAlign=middle;resizable=0;points=[];" parent="nJhTN-xELW21ojM_PChQ-9" vertex="1" connectable="0">
          <mxGeometry x="0.2633" y="-1" relative="1" as="geometry">
            <mxPoint x="44" as="offset" />
          </mxGeometry>
        </mxCell>
        <mxCell id="o8nqJPVt-zvEMNnkmq4Q-22" value="" style="rounded=0;whiteSpace=wrap;html=1;direction=south;" parent="1" vertex="1">
          <mxGeometry x="675" y="100" width="10" height="110" as="geometry" />
        </mxCell>
        <mxCell id="nJhTN-xELW21ojM_PChQ-1" value="" style="rounded=0;whiteSpace=wrap;html=1;direction=south;" parent="1" vertex="1">
          <mxGeometry x="364" y="280" width="10" height="110" as="geometry" />
        </mxCell>
        <mxCell id="nJhTN-xELW21ojM_PChQ-2" value="" style="rounded=0;whiteSpace=wrap;html=1;direction=south;" parent="1" vertex="1">
          <mxGeometry x="675" y="280" width="10" height="110" as="geometry" />
        </mxCell>
        <mxCell id="nJhTN-xELW21ojM_PChQ-5" value="" style="endArrow=none;html=1;rounded=0;" parent="1" edge="1">
          <mxGeometry width="50" height="50" relative="1" as="geometry">
            <mxPoint x="370" y="280" as="sourcePoint" />
            <mxPoint x="370" y="210" as="targetPoint" />
          </mxGeometry>
        </mxCell>
        <mxCell id="nJhTN-xELW21ojM_PChQ-20" value="" style="endArrow=classic;html=1;rounded=0;exitX=0.25;exitY=0;exitDx=0;exitDy=0;entryX=0.25;entryY=1;entryDx=0;entryDy=0;" parent="1" source="nJhTN-xELW21ojM_PChQ-1" target="nJhTN-xELW21ojM_PChQ-2" edge="1">
          <mxGeometry width="50" height="50" relative="1" as="geometry">
            <mxPoint x="400" y="250" as="sourcePoint" />
            <mxPoint x="670" y="308" as="targetPoint" />
          </mxGeometry>
        </mxCell>
        <mxCell id="nJhTN-xELW21ojM_PChQ-21" value="调用验券接口进行核销" style="edgeLabel;html=1;align=center;verticalAlign=middle;resizable=0;points=[];" parent="nJhTN-xELW21ojM_PChQ-20" vertex="1" connectable="0">
          <mxGeometry x="0.0322" relative="1" as="geometry">
            <mxPoint y="1" as="offset" />
          </mxGeometry>
        </mxCell>
        <mxCell id="nJhTN-xELW21ojM_PChQ-23" value="" style="endArrow=classic;html=1;rounded=0;entryX=0.75;entryY=0;entryDx=0;entryDy=0;exitX=0.75;exitY=1;exitDx=0;exitDy=0;dashed=1;" parent="1" source="nJhTN-xELW21ojM_PChQ-2" target="nJhTN-xELW21ojM_PChQ-1" edge="1">
          <mxGeometry width="50" height="50" relative="1" as="geometry">
            <mxPoint x="400" y="250" as="sourcePoint" />
            <mxPoint x="450" y="200" as="targetPoint" />
          </mxGeometry>
        </mxCell>
        <mxCell id="nJhTN-xELW21ojM_PChQ-24" value="返回code等参数" style="edgeLabel;html=1;align=center;verticalAlign=middle;resizable=0;points=[];" parent="nJhTN-xELW21ojM_PChQ-23" vertex="1" connectable="0">
          <mxGeometry x="0.1927" y="1" relative="1" as="geometry">
            <mxPoint x="35" as="offset" />
          </mxGeometry>
        </mxCell>
        <mxCell id="nJhTN-xELW21ojM_PChQ-25" value="中石油" style="rounded=1;whiteSpace=wrap;html=1;fillColor=#fff2cc;strokeColor=#d6b656;" parent="1" vertex="1">
          <mxGeometry x="940" width="120" height="60" as="geometry" />
        </mxCell>
        <mxCell id="nJhTN-xELW21ojM_PChQ-26" value="" style="rounded=0;whiteSpace=wrap;html=1;direction=south;" parent="1" vertex="1">
          <mxGeometry x="364" y="440" width="10" height="110" as="geometry" />
        </mxCell>
        <mxCell id="nJhTN-xELW21ojM_PChQ-27" value="" style="endArrow=none;html=1;rounded=0;" parent="1" edge="1">
          <mxGeometry width="50" height="50" relative="1" as="geometry">
            <mxPoint x="368.5" y="440" as="sourcePoint" />
            <mxPoint x="369" y="390" as="targetPoint" />
          </mxGeometry>
        </mxCell>
        <mxCell id="nJhTN-xELW21ojM_PChQ-28" value="" style="rounded=0;whiteSpace=wrap;html=1;direction=south;" parent="1" vertex="1">
          <mxGeometry x="995" y="440" width="10" height="110" as="geometry" />
        </mxCell>
        <mxCell id="nJhTN-xELW21ojM_PChQ-29" value="" style="edgeStyle=orthogonalEdgeStyle;rounded=0;orthogonalLoop=1;jettySize=auto;html=1;strokeColor=default;strokeWidth=1;endArrow=none;endFill=0;" parent="1" source="o8nqJPVt-zvEMNnkmq4Q-22" target="nJhTN-xELW21ojM_PChQ-2" edge="1">
          <mxGeometry relative="1" as="geometry">
            <mxPoint x="680" y="210" as="sourcePoint" />
            <mxPoint x="680" y="280" as="targetPoint" />
            <Array as="points">
              <mxPoint x="680" y="100" />
              <mxPoint x="680" y="100" />
            </Array>
          </mxGeometry>
        </mxCell>
        <mxCell id="nJhTN-xELW21ojM_PChQ-30" value="" style="edgeStyle=orthogonalEdgeStyle;rounded=0;orthogonalLoop=1;jettySize=auto;html=1;strokeColor=default;strokeWidth=1;endArrow=none;endFill=0;" parent="1" source="o8nqJPVt-zvEMNnkmq4Q-22" target="nJhTN-xELW21ojM_PChQ-2" edge="1">
          <mxGeometry relative="1" as="geometry">
            <mxPoint x="680" y="210" as="sourcePoint" />
            <mxPoint x="680" y="280" as="targetPoint" />
            <Array as="points">
              <mxPoint x="680" y="100" />
              <mxPoint x="680" y="100" />
            </Array>
          </mxGeometry>
        </mxCell>
        <mxCell id="nJhTN-xELW21ojM_PChQ-31" value="" style="edgeStyle=orthogonalEdgeStyle;rounded=0;orthogonalLoop=1;jettySize=auto;html=1;strokeColor=default;strokeWidth=1;endArrow=none;endFill=0;" parent="1" source="o8nqJPVt-zvEMNnkmq4Q-22" target="nJhTN-xELW21ojM_PChQ-2" edge="1">
          <mxGeometry relative="1" as="geometry">
            <mxPoint x="680" y="210" as="sourcePoint" />
            <mxPoint x="680" y="280" as="targetPoint" />
            <Array as="points">
              <mxPoint x="680" y="150" />
            </Array>
          </mxGeometry>
        </mxCell>
        <mxCell id="nJhTN-xELW21ojM_PChQ-32" value="" style="endArrow=none;html=1;rounded=0;entryX=0.5;entryY=1;entryDx=0;entryDy=0;exitX=0;exitY=0.5;exitDx=0;exitDy=0;" parent="1" source="o8nqJPVt-zvEMNnkmq4Q-22" target="o8nqJPVt-zvEMNnkmq4Q-5" edge="1">
          <mxGeometry width="50" height="50" relative="1" as="geometry">
            <mxPoint x="580" y="330" as="sourcePoint" />
            <mxPoint x="630" y="280" as="targetPoint" />
          </mxGeometry>
        </mxCell>
        <mxCell id="nJhTN-xELW21ojM_PChQ-33" value="" style="endArrow=none;html=1;rounded=0;entryX=0.5;entryY=1;entryDx=0;entryDy=0;exitX=0;exitY=0.5;exitDx=0;exitDy=0;" parent="1" source="nJhTN-xELW21ojM_PChQ-28" target="nJhTN-xELW21ojM_PChQ-25" edge="1">
          <mxGeometry width="50" height="50" relative="1" as="geometry">
            <mxPoint x="580" y="330" as="sourcePoint" />
            <mxPoint x="630" y="280" as="targetPoint" />
          </mxGeometry>
        </mxCell>
        <mxCell id="nJhTN-xELW21ojM_PChQ-34" value="" style="endArrow=classic;html=1;rounded=0;entryX=0.359;entryY=0.85;entryDx=0;entryDy=0;entryPerimeter=0;exitX=0.341;exitY=0.15;exitDx=0;exitDy=0;exitPerimeter=0;" parent="1" source="nJhTN-xELW21ojM_PChQ-26" target="nJhTN-xELW21ojM_PChQ-28" edge="1">
          <mxGeometry width="50" height="50" relative="1" as="geometry">
            <mxPoint x="580" y="330" as="sourcePoint" />
            <mxPoint x="630" y="280" as="targetPoint" />
          </mxGeometry>
        </mxCell>
        <mxCell id="nJhTN-xELW21ojM_PChQ-35" value="派券" style="edgeLabel;html=1;align=center;verticalAlign=middle;resizable=0;points=[];" parent="nJhTN-xELW21ojM_PChQ-34" vertex="1" connectable="0">
          <mxGeometry x="-0.1795" y="1" relative="1" as="geometry">
            <mxPoint x="52" as="offset" />
          </mxGeometry>
        </mxCell>
        <mxCell id="nJhTN-xELW21ojM_PChQ-37" value="mq" style="rounded=1;whiteSpace=wrap;html=1;fillColor=#008a00;strokeColor=#005700;fontColor=#ffffff;" parent="1" vertex="1">
          <mxGeometry x="1230" width="120" height="60" as="geometry" />
        </mxCell>
        <mxCell id="g20JxxqgTZNWnrFlKe98-1" value="" style="endArrow=classic;html=1;rounded=0;entryX=0.75;entryY=0;entryDx=0;entryDy=0;exitX=0.75;exitY=1;exitDx=0;exitDy=0;dashed=1;" parent="1" source="nJhTN-xELW21ojM_PChQ-28" target="nJhTN-xELW21ojM_PChQ-26" edge="1">
          <mxGeometry width="50" height="50" relative="1" as="geometry">
            <mxPoint x="880" y="390" as="sourcePoint" />
            <mxPoint x="920" y="340" as="targetPoint" />
          </mxGeometry>
        </mxCell>
        <mxCell id="g20JxxqgTZNWnrFlKe98-2" value="返回" style="edgeLabel;html=1;align=center;verticalAlign=middle;resizable=0;points=[];" parent="g20JxxqgTZNWnrFlKe98-1" vertex="1" connectable="0">
          <mxGeometry x="0.1578" y="2" relative="1" as="geometry">
            <mxPoint x="44" as="offset" />
          </mxGeometry>
        </mxCell>
        <mxCell id="g20JxxqgTZNWnrFlKe98-6" style="edgeStyle=orthogonalEdgeStyle;rounded=0;orthogonalLoop=1;jettySize=auto;html=1;entryX=0.5;entryY=1;entryDx=0;entryDy=0;" parent="1" source="g20JxxqgTZNWnrFlKe98-3" target="g20JxxqgTZNWnrFlKe98-4" edge="1">
          <mxGeometry relative="1" as="geometry" />
        </mxCell>
        <mxCell id="g20JxxqgTZNWnrFlKe98-7" value="写入mq" style="edgeLabel;html=1;align=center;verticalAlign=middle;resizable=0;points=[];" parent="g20JxxqgTZNWnrFlKe98-6" vertex="1" connectable="0">
          <mxGeometry x="-0.0307" y="-2" relative="1" as="geometry">
            <mxPoint as="offset" />
          </mxGeometry>
        </mxCell>
        <mxCell id="g20JxxqgTZNWnrFlKe98-3" value="" style="rounded=0;whiteSpace=wrap;html=1;direction=south;" parent="1" vertex="1">
          <mxGeometry x="364" y="600" width="10" height="110" as="geometry" />
        </mxCell>
        <mxCell id="g20JxxqgTZNWnrFlKe98-4" value="" style="rounded=0;whiteSpace=wrap;html=1;direction=south;" parent="1" vertex="1">
          <mxGeometry x="1285" y="600" width="10" height="110" as="geometry" />
        </mxCell>
        <mxCell id="g20JxxqgTZNWnrFlKe98-5" value="" style="endArrow=none;html=1;rounded=0;entryX=0.5;entryY=1;entryDx=0;entryDy=0;exitX=0;exitY=0.5;exitDx=0;exitDy=0;" parent="1" source="g20JxxqgTZNWnrFlKe98-4" target="nJhTN-xELW21ojM_PChQ-37" edge="1">
          <mxGeometry width="50" height="50" relative="1" as="geometry">
            <mxPoint x="760" y="420" as="sourcePoint" />
            <mxPoint x="810" y="370" as="targetPoint" />
          </mxGeometry>
        </mxCell>
        <mxCell id="g20JxxqgTZNWnrFlKe98-8" value="" style="endArrow=none;html=1;rounded=0;exitX=1;exitY=0.5;exitDx=0;exitDy=0;entryX=0;entryY=0.5;entryDx=0;entryDy=0;" parent="1" source="nJhTN-xELW21ojM_PChQ-26" target="g20JxxqgTZNWnrFlKe98-3" edge="1">
          <mxGeometry width="50" height="50" relative="1" as="geometry">
            <mxPoint x="760" y="420" as="sourcePoint" />
            <mxPoint x="810" y="370" as="targetPoint" />
          </mxGeometry>
        </mxCell>
        <mxCell id="g20JxxqgTZNWnrFlKe98-9" value="&lt;h1 style=&quot;margin-top: 0px;&quot;&gt;逻辑&lt;/h1&gt;&lt;div&gt;验券接口：&lt;/div&gt;&lt;div&gt;1，&lt;span style=&quot;background-color: initial;&quot;&gt;code-&amp;gt;orderId 存入redis 30s&lt;/span&gt;&lt;/div&gt;&lt;div&gt;&lt;br&gt;&lt;/div&gt;&lt;div&gt;派券接口：&lt;/div&gt;&lt;div&gt;1，根据code参数获取orderId&lt;/div&gt;&lt;div&gt;2，&lt;span style=&quot;background-color: initial;&quot;&gt;对code进行setnx,60s内只能操作一次&lt;/span&gt;&lt;/div&gt;&lt;div&gt;3，根据code参数获取时间，如果存在表示已发券&lt;/div&gt;&lt;div&gt;4，派券成功，zadd(code,t.unix)&lt;/div&gt;" style="text;html=1;whiteSpace=wrap;overflow=hidden;rounded=0;" parent="1" vertex="1">
          <mxGeometry x="140" y="779" width="580" height="390" as="geometry" />
        </mxCell>
        <mxCell id="AsOEq9Uo59oJCtuFqaN1-1" value="User&lt;div&gt;&lt;br&gt;&lt;/div&gt;" style="shape=umlActor;verticalLabelPosition=bottom;verticalAlign=top;html=1;outlineConnect=0;" vertex="1" parent="1">
          <mxGeometry x="710" y="1950" width="30" height="60" as="geometry" />
        </mxCell>
        <mxCell id="AsOEq9Uo59oJCtuFqaN1-2" value="" style="rounded=0;whiteSpace=wrap;html=1;direction=south;" vertex="1" parent="1">
          <mxGeometry x="925" y="1950" width="10" height="110" as="geometry" />
        </mxCell>
        <mxCell id="AsOEq9Uo59oJCtuFqaN1-3" value="" style="endArrow=none;html=1;rounded=0;entryX=0.5;entryY=1;entryDx=0;entryDy=0;exitX=0;exitY=0.5;exitDx=0;exitDy=0;" edge="1" parent="1" source="AsOEq9Uo59oJCtuFqaN1-2">
          <mxGeometry width="50" height="50" relative="1" as="geometry">
            <mxPoint x="1010" y="1990" as="sourcePoint" />
            <mxPoint x="930" y="1910" as="targetPoint" />
          </mxGeometry>
        </mxCell>
        <mxCell id="AsOEq9Uo59oJCtuFqaN1-4" value="" style="endArrow=classic;html=1;rounded=0;entryX=0.182;entryY=0.8;entryDx=0;entryDy=0;entryPerimeter=0;" edge="1" parent="1" target="AsOEq9Uo59oJCtuFqaN1-2">
          <mxGeometry width="50" height="50" relative="1" as="geometry">
            <mxPoint x="760" y="1970" as="sourcePoint" />
            <mxPoint x="920" y="1970" as="targetPoint" />
          </mxGeometry>
        </mxCell>
        <mxCell id="AsOEq9Uo59oJCtuFqaN1-5" value="核销" style="edgeLabel;html=1;align=center;verticalAlign=middle;resizable=0;points=[];" vertex="1" connectable="0" parent="AsOEq9Uo59oJCtuFqaN1-4">
          <mxGeometry x="-0.4375" y="2" relative="1" as="geometry">
            <mxPoint as="offset" />
          </mxGeometry>
        </mxCell>
        <mxCell id="AsOEq9Uo59oJCtuFqaN1-6" value="" style="endArrow=classic;html=1;rounded=0;exitX=0.182;exitY=-0.5;exitDx=0;exitDy=0;exitPerimeter=0;entryX=0.164;entryY=1;entryDx=0;entryDy=0;entryPerimeter=0;" edge="1" parent="1" source="AsOEq9Uo59oJCtuFqaN1-2" target="AsOEq9Uo59oJCtuFqaN1-11">
          <mxGeometry width="50" height="50" relative="1" as="geometry">
            <mxPoint x="1010" y="1990" as="sourcePoint" />
            <mxPoint x="1214" y="1968.37" as="targetPoint" />
          </mxGeometry>
        </mxCell>
        <mxCell id="AsOEq9Uo59oJCtuFqaN1-7" value="验券准备接口，查询券列表" style="edgeLabel;html=1;align=center;verticalAlign=middle;resizable=0;points=[];" vertex="1" connectable="0" parent="AsOEq9Uo59oJCtuFqaN1-6">
          <mxGeometry x="-0.6333" relative="1" as="geometry">
            <mxPoint x="95" as="offset" />
          </mxGeometry>
        </mxCell>
        <mxCell id="AsOEq9Uo59oJCtuFqaN1-8" value="" style="edgeStyle=orthogonalEdgeStyle;rounded=0;orthogonalLoop=1;jettySize=auto;html=1;strokeColor=default;strokeWidth=1;endArrow=none;endFill=0;" edge="1" parent="1" source="AsOEq9Uo59oJCtuFqaN1-11" target="AsOEq9Uo59oJCtuFqaN1-13">
          <mxGeometry relative="1" as="geometry" />
        </mxCell>
        <mxCell id="AsOEq9Uo59oJCtuFqaN1-9" style="edgeStyle=orthogonalEdgeStyle;rounded=0;orthogonalLoop=1;jettySize=auto;html=1;entryX=0.5;entryY=0;entryDx=0;entryDy=0;dashed=1;" edge="1" parent="1">
          <mxGeometry relative="1" as="geometry">
            <mxPoint x="1235" y="2040" as="sourcePoint" />
            <mxPoint x="935" y="2040" as="targetPoint" />
          </mxGeometry>
        </mxCell>
        <mxCell id="AsOEq9Uo59oJCtuFqaN1-10" value="返回verifytoken等参数" style="edgeLabel;html=1;align=center;verticalAlign=middle;resizable=0;points=[];" vertex="1" connectable="0" parent="AsOEq9Uo59oJCtuFqaN1-9">
          <mxGeometry x="0.2633" y="-1" relative="1" as="geometry">
            <mxPoint x="44" as="offset" />
          </mxGeometry>
        </mxCell>
        <mxCell id="AsOEq9Uo59oJCtuFqaN1-11" value="" style="rounded=0;whiteSpace=wrap;html=1;direction=south;" vertex="1" parent="1">
          <mxGeometry x="1235" y="1950" width="10" height="110" as="geometry" />
        </mxCell>
        <mxCell id="AsOEq9Uo59oJCtuFqaN1-12" value="" style="rounded=0;whiteSpace=wrap;html=1;direction=south;" vertex="1" parent="1">
          <mxGeometry x="924" y="2130" width="10" height="110" as="geometry" />
        </mxCell>
        <mxCell id="AsOEq9Uo59oJCtuFqaN1-13" value="" style="rounded=0;whiteSpace=wrap;html=1;direction=south;" vertex="1" parent="1">
          <mxGeometry x="1235" y="2130" width="10" height="110" as="geometry" />
        </mxCell>
        <mxCell id="AsOEq9Uo59oJCtuFqaN1-14" value="" style="endArrow=none;html=1;rounded=0;" edge="1" parent="1">
          <mxGeometry width="50" height="50" relative="1" as="geometry">
            <mxPoint x="930" y="2130" as="sourcePoint" />
            <mxPoint x="930" y="2060" as="targetPoint" />
          </mxGeometry>
        </mxCell>
        <mxCell id="AsOEq9Uo59oJCtuFqaN1-15" value="" style="endArrow=classic;html=1;rounded=0;exitX=0.25;exitY=0;exitDx=0;exitDy=0;entryX=0.25;entryY=1;entryDx=0;entryDy=0;" edge="1" parent="1" source="AsOEq9Uo59oJCtuFqaN1-12" target="AsOEq9Uo59oJCtuFqaN1-13">
          <mxGeometry width="50" height="50" relative="1" as="geometry">
            <mxPoint x="960" y="2100" as="sourcePoint" />
            <mxPoint x="1230" y="2158" as="targetPoint" />
          </mxGeometry>
        </mxCell>
        <mxCell id="AsOEq9Uo59oJCtuFqaN1-16" value="调用验券接口进行核销" style="edgeLabel;html=1;align=center;verticalAlign=middle;resizable=0;points=[];" vertex="1" connectable="0" parent="AsOEq9Uo59oJCtuFqaN1-15">
          <mxGeometry x="0.0322" relative="1" as="geometry">
            <mxPoint y="1" as="offset" />
          </mxGeometry>
        </mxCell>
        <mxCell id="AsOEq9Uo59oJCtuFqaN1-17" value="" style="endArrow=classic;html=1;rounded=0;entryX=0.75;entryY=0;entryDx=0;entryDy=0;exitX=0.75;exitY=1;exitDx=0;exitDy=0;dashed=1;" edge="1" parent="1" source="AsOEq9Uo59oJCtuFqaN1-13" target="AsOEq9Uo59oJCtuFqaN1-12">
          <mxGeometry width="50" height="50" relative="1" as="geometry">
            <mxPoint x="960" y="2100" as="sourcePoint" />
            <mxPoint x="1010" y="2050" as="targetPoint" />
          </mxGeometry>
        </mxCell>
        <mxCell id="AsOEq9Uo59oJCtuFqaN1-18" value="返回code等参数" style="edgeLabel;html=1;align=center;verticalAlign=middle;resizable=0;points=[];" vertex="1" connectable="0" parent="AsOEq9Uo59oJCtuFqaN1-17">
          <mxGeometry x="0.1927" y="1" relative="1" as="geometry">
            <mxPoint x="35" as="offset" />
          </mxGeometry>
        </mxCell>
        <mxCell id="AsOEq9Uo59oJCtuFqaN1-19" value="" style="rounded=0;whiteSpace=wrap;html=1;direction=south;" vertex="1" parent="1">
          <mxGeometry x="924" y="2290" width="10" height="110" as="geometry" />
        </mxCell>
        <mxCell id="AsOEq9Uo59oJCtuFqaN1-20" value="" style="endArrow=none;html=1;rounded=0;" edge="1" parent="1">
          <mxGeometry width="50" height="50" relative="1" as="geometry">
            <mxPoint x="928.5" y="2290" as="sourcePoint" />
            <mxPoint x="929" y="2240" as="targetPoint" />
          </mxGeometry>
        </mxCell>
        <mxCell id="AsOEq9Uo59oJCtuFqaN1-21" value="" style="rounded=0;whiteSpace=wrap;html=1;direction=south;" vertex="1" parent="1">
          <mxGeometry x="1555" y="2290" width="10" height="110" as="geometry" />
        </mxCell>
        <mxCell id="AsOEq9Uo59oJCtuFqaN1-22" value="" style="edgeStyle=orthogonalEdgeStyle;rounded=0;orthogonalLoop=1;jettySize=auto;html=1;strokeColor=default;strokeWidth=1;endArrow=none;endFill=0;" edge="1" parent="1" source="AsOEq9Uo59oJCtuFqaN1-11" target="AsOEq9Uo59oJCtuFqaN1-13">
          <mxGeometry relative="1" as="geometry">
            <mxPoint x="1240" y="2060" as="sourcePoint" />
            <mxPoint x="1240" y="2130" as="targetPoint" />
            <Array as="points">
              <mxPoint x="1240" y="1950" />
              <mxPoint x="1240" y="1950" />
            </Array>
          </mxGeometry>
        </mxCell>
        <mxCell id="AsOEq9Uo59oJCtuFqaN1-23" value="" style="edgeStyle=orthogonalEdgeStyle;rounded=0;orthogonalLoop=1;jettySize=auto;html=1;strokeColor=default;strokeWidth=1;endArrow=none;endFill=0;" edge="1" parent="1" source="AsOEq9Uo59oJCtuFqaN1-11" target="AsOEq9Uo59oJCtuFqaN1-13">
          <mxGeometry relative="1" as="geometry">
            <mxPoint x="1240" y="2060" as="sourcePoint" />
            <mxPoint x="1240" y="2130" as="targetPoint" />
            <Array as="points">
              <mxPoint x="1240" y="1950" />
              <mxPoint x="1240" y="1950" />
            </Array>
          </mxGeometry>
        </mxCell>
        <mxCell id="AsOEq9Uo59oJCtuFqaN1-24" value="" style="edgeStyle=orthogonalEdgeStyle;rounded=0;orthogonalLoop=1;jettySize=auto;html=1;strokeColor=default;strokeWidth=1;endArrow=none;endFill=0;" edge="1" parent="1" source="AsOEq9Uo59oJCtuFqaN1-11" target="AsOEq9Uo59oJCtuFqaN1-13">
          <mxGeometry relative="1" as="geometry">
            <mxPoint x="1240" y="2060" as="sourcePoint" />
            <mxPoint x="1240" y="2130" as="targetPoint" />
            <Array as="points">
              <mxPoint x="1240" y="2000" />
            </Array>
          </mxGeometry>
        </mxCell>
        <mxCell id="AsOEq9Uo59oJCtuFqaN1-25" value="" style="endArrow=none;html=1;rounded=0;entryX=0.5;entryY=1;entryDx=0;entryDy=0;exitX=0;exitY=0.5;exitDx=0;exitDy=0;" edge="1" parent="1" source="AsOEq9Uo59oJCtuFqaN1-11">
          <mxGeometry width="50" height="50" relative="1" as="geometry">
            <mxPoint x="1140" y="2180" as="sourcePoint" />
            <mxPoint x="1240" y="1910" as="targetPoint" />
          </mxGeometry>
        </mxCell>
        <mxCell id="AsOEq9Uo59oJCtuFqaN1-26" value="" style="endArrow=none;html=1;rounded=0;entryX=0.5;entryY=1;entryDx=0;entryDy=0;exitX=0;exitY=0.5;exitDx=0;exitDy=0;" edge="1" parent="1" source="AsOEq9Uo59oJCtuFqaN1-21">
          <mxGeometry width="50" height="50" relative="1" as="geometry">
            <mxPoint x="1140" y="2180" as="sourcePoint" />
            <mxPoint x="1560" y="1910" as="targetPoint" />
          </mxGeometry>
        </mxCell>
        <mxCell id="AsOEq9Uo59oJCtuFqaN1-27" value="" style="endArrow=classic;html=1;rounded=0;entryX=0.359;entryY=0.85;entryDx=0;entryDy=0;entryPerimeter=0;exitX=0.341;exitY=0.15;exitDx=0;exitDy=0;exitPerimeter=0;" edge="1" parent="1" source="AsOEq9Uo59oJCtuFqaN1-19" target="AsOEq9Uo59oJCtuFqaN1-21">
          <mxGeometry width="50" height="50" relative="1" as="geometry">
            <mxPoint x="1140" y="2180" as="sourcePoint" />
            <mxPoint x="1190" y="2130" as="targetPoint" />
          </mxGeometry>
        </mxCell>
        <mxCell id="AsOEq9Uo59oJCtuFqaN1-28" value="派券" style="edgeLabel;html=1;align=center;verticalAlign=middle;resizable=0;points=[];" vertex="1" connectable="0" parent="AsOEq9Uo59oJCtuFqaN1-27">
          <mxGeometry x="-0.1795" y="1" relative="1" as="geometry">
            <mxPoint x="52" as="offset" />
          </mxGeometry>
        </mxCell>
        <mxCell id="AsOEq9Uo59oJCtuFqaN1-29" value="" style="endArrow=classic;html=1;rounded=0;entryX=0.75;entryY=0;entryDx=0;entryDy=0;exitX=0.75;exitY=1;exitDx=0;exitDy=0;dashed=1;" edge="1" parent="1" source="AsOEq9Uo59oJCtuFqaN1-21" target="AsOEq9Uo59oJCtuFqaN1-19">
          <mxGeometry width="50" height="50" relative="1" as="geometry">
            <mxPoint x="1440" y="2240" as="sourcePoint" />
            <mxPoint x="1480" y="2190" as="targetPoint" />
          </mxGeometry>
        </mxCell>
        <mxCell id="AsOEq9Uo59oJCtuFqaN1-30" value="返回" style="edgeLabel;html=1;align=center;verticalAlign=middle;resizable=0;points=[];" vertex="1" connectable="0" parent="AsOEq9Uo59oJCtuFqaN1-29">
          <mxGeometry x="0.1578" y="2" relative="1" as="geometry">
            <mxPoint x="44" as="offset" />
          </mxGeometry>
        </mxCell>
        <mxCell id="AsOEq9Uo59oJCtuFqaN1-31" style="edgeStyle=orthogonalEdgeStyle;rounded=0;orthogonalLoop=1;jettySize=auto;html=1;entryX=0.5;entryY=1;entryDx=0;entryDy=0;" edge="1" parent="1" source="AsOEq9Uo59oJCtuFqaN1-33" target="AsOEq9Uo59oJCtuFqaN1-34">
          <mxGeometry relative="1" as="geometry" />
        </mxCell>
        <mxCell id="AsOEq9Uo59oJCtuFqaN1-32" value="写入mq" style="edgeLabel;html=1;align=center;verticalAlign=middle;resizable=0;points=[];" vertex="1" connectable="0" parent="AsOEq9Uo59oJCtuFqaN1-31">
          <mxGeometry x="-0.0307" y="-2" relative="1" as="geometry">
            <mxPoint as="offset" />
          </mxGeometry>
        </mxCell>
        <mxCell id="AsOEq9Uo59oJCtuFqaN1-33" value="" style="rounded=0;whiteSpace=wrap;html=1;direction=south;" vertex="1" parent="1">
          <mxGeometry x="924" y="2450" width="10" height="110" as="geometry" />
        </mxCell>
        <mxCell id="AsOEq9Uo59oJCtuFqaN1-34" value="" style="rounded=0;whiteSpace=wrap;html=1;direction=south;" vertex="1" parent="1">
          <mxGeometry x="1845" y="2450" width="10" height="110" as="geometry" />
        </mxCell>
        <mxCell id="AsOEq9Uo59oJCtuFqaN1-35" value="" style="endArrow=none;html=1;rounded=0;entryX=0.5;entryY=1;entryDx=0;entryDy=0;exitX=0;exitY=0.5;exitDx=0;exitDy=0;" edge="1" parent="1" source="AsOEq9Uo59oJCtuFqaN1-34">
          <mxGeometry width="50" height="50" relative="1" as="geometry">
            <mxPoint x="1320" y="2270" as="sourcePoint" />
            <mxPoint x="1850" y="1910" as="targetPoint" />
          </mxGeometry>
        </mxCell>
        <mxCell id="AsOEq9Uo59oJCtuFqaN1-36" value="" style="endArrow=none;html=1;rounded=0;exitX=1;exitY=0.5;exitDx=0;exitDy=0;entryX=0;entryY=0.5;entryDx=0;entryDy=0;" edge="1" parent="1" source="AsOEq9Uo59oJCtuFqaN1-19" target="AsOEq9Uo59oJCtuFqaN1-33">
          <mxGeometry width="50" height="50" relative="1" as="geometry">
            <mxPoint x="1320" y="2270" as="sourcePoint" />
            <mxPoint x="1370" y="2220" as="targetPoint" />
          </mxGeometry>
        </mxCell>
      </root>
    </mxGraphModel>
  </diagram>
</mxfile>
